<?xml version="1.0" encoding="UTF-8"?>
<svg width="163px" height="46px" viewBox="0 0 163 46" version="1.1" xmlns="http://www.w3.org/2000/svg" xmlns:xlink="http://www.w3.org/1999/xlink">
    <!-- Generator: Sketch 46.2 (44496) - http://www.bohemiancoding.com/sketch -->
    <title>logo</title>
    <desc>Created with Sketch.</desc>
    <defs></defs>
    <g id="Page-1" stroke="none" stroke-width="1" fill="none" fill-rule="evenodd">
        <g id="logo" transform="translate(-54.000000, -122.000000)">
            <g transform="translate(54.000000, 122.000000)">
                <path d="M19.2679841,30.4663372 C19.2679841,34.9162089 17.8975308,38.2536128 14.6427044,38.2536128 C11.6448379,38.2536128 9.9317714,37.3122937 9.9317714,33.5470176 L9.9317714,13.4370203 L0.424252056,13.4370203 L0.424252056,33.4614432 C0.424252056,42.7034845 4.53561177,45.8697394 10.4456914,45.8697394 C14.2144378,45.8697394 17.3836109,44.4149737 19.2679841,42.0188889 L19.6105974,42.0188889 L19.8675574,45.2707182 L28.7755034,45.2707182 L28.7755034,13.4370203 L19.2679841,13.4370203 L19.2679841,30.4663372 Z M53.5079331,45.2707182 L53.0582531,41.8263463 C51.1524666,44.3293992 48.5828667,45.8697394 45.1995603,45.8697394 C37.1481475,45.8697394 32.7798278,39.0237829 32.7798278,29.0971459 C32.7798278,19.4272322 37.1481475,12.8379991 45.2852136,12.8379991 C48.3473201,12.8379991 50.7241999,14.1002223 52.5657465,16.2609773 L52.5657465,1.45659628 L62.0732658,1.45659628 L62.0732658,45.2707182 L53.5079331,45.2707182 Z M42.2873472,29.0971459 C42.2873472,34.4883367 43.5721471,38.1680383 47.5978535,38.1680383 C51.5379065,38.1680383 53.5079331,35.2585068 53.5079331,30.7230606 L53.5079331,28.4125502 C53.5079331,23.2780828 51.6235599,20.4541257 47.6835068,20.4541257 C43.7434537,20.4541257 42.2873472,24.1338274 42.2873472,29.0971459 Z M80.3816959,45.784165 C73.1011631,45.784165 65.4780169,40.9919954 65.4780169,29.2682948 C65.4780169,17.9724665 73.1011631,12.8379991 80.3816959,12.8379991 C87.5765754,12.8379991 95.1140682,17.9724665 95.1140682,29.2682948 C95.1140682,40.9919954 87.5765754,45.784165 80.3816959,45.784165 Z M80.3816959,38.1680383 C83.2082557,38.1680383 85.8635088,35.5152301 85.8635088,29.2682948 C85.8635088,23.1069339 83.2082557,20.4541257 80.3816959,20.4541257 C77.5551361,20.4541257 74.8998829,23.1069339 74.8998829,29.2682948 C74.8998829,35.5152301 77.4694828,38.1680383 80.3816959,38.1680383 Z M127.212684,25.4174442 C127.212684,21.9088915 129.182711,20.4541257 131.837964,20.4541257 C134.407563,20.4541257 136.12063,21.3098703 136.12063,25.2462953 L136.12063,45.2707182 L145.628149,45.2707182 L145.628149,25.2462953 C145.628149,16.004254 141.51679,12.8379991 135.60671,12.8379991 C131.409697,12.8379991 128.154871,14.6350626 126.356151,17.2878708 L126.013537,17.2878708 C124.643084,14.3783393 121.730871,12.8379991 117.962125,12.8379991 C113.936418,12.8379991 111.281165,14.3783393 109.396792,16.6888496 L109.139832,16.6888496 L109.139832,13.4370203 L99.8892725,13.4370203 L99.8892725,45.2707182 L109.396792,45.2707182 L109.396792,25.0751464 C109.396792,21.6521681 111.281165,20.4541257 113.336845,20.4541257 C115.992098,20.4541257 118.047778,21.2242958 118.047778,25.2462953 L118.047778,45.2707182 L127.212684,45.2707182 L127.212684,25.4174442 Z M161.795265,13.4370203 L152.287745,13.4370203 L152.287745,45.2707182 L161.795265,45.2707182 L161.795265,13.4370203 Z" id="udomi" fill="#23D160"></path>
                <path d="M151.773825,5.47859576 C151.773825,8.30255283 153.829505,10.2707653 156.998678,10.2707653 C160.167851,10.2707653 162.309185,8.30255283 162.309185,5.47859576 C162.309185,2.65463868 160.167851,0.686426167 156.998678,0.686426167 C153.829505,0.686426167 151.773825,2.65463868 151.773825,5.47859576 Z" id="Path" fill="#000000"></path>
            </g>
        </g>
    </g>
</svg>